# xmcd CD database file
#
# Track frame offsets:
#	150
#	16274
#	30660
#	49724
#	63657
#	85502
#	97455
#	113674
#	140817
#
# Disc length: 2056 seconds
#
# Revision: 0
# Processed by: cddbd v1.5.2PL0 Copyright (c) Steve Scherf et al.
# Submitted via: CDex 1.70beta2
#
DISCID=77080609
DTITLE=OAKCITY Jajjband - Let's have a party
DYEAR=2005
DGENRE=Jazz
TTITLE0=Let's have a party
TTITLE1=My blue heaven
TTITLE2=After you've gone
TTITLE3=Anytime
TTITLE4=Dream a little dream of me
TTITLE5=Big butter and egg man
TTITLE6=Virginie
TTITLE7=C'est si bon
TTITLE8=You're driving me crazy
EXTD=YEAR: 2005
EXTT0=
EXTT1=
EXTT2=
EXTT3=
EXTT4=
EXTT5=
EXTT6=
EXTT7=
EXTT8=
PLAYORDER=
